<svg id="visual" viewBox="0 0 900 675" width="900" height="675" xmlns="http://www.w3.org/2000/svg" xmlns:xlink="http://www.w3.org/1999/xlink" version="1.1"><rect width="900" height="675" fill="#dcbfa0"></rect><g><g transform="translate(118 579)"><path d="M36 -11.7C40.3 1.5 33 18.5 20.2 27.9C7.3 37.2 -11.2 39 -22.6 30.8C-34 22.5 -38.4 4.3 -33.5 -9.8C-28.5 -23.9 -14.3 -33.9 0.8 -34.1C15.8 -34.4 31.7 -24.9 36 -11.7Z" fill="none" stroke="#563829" stroke-width="15"></path></g><g transform="translate(501 269)"><path d="M12.4 -4.7C14.1 1.3 12.3 7.8 7.9 11C3.6 14.2 -3.3 14 -8.3 10.6C-13.4 7.1 -16.7 0.3 -15 -5.7C-13.3 -11.6 -6.7 -16.8 -0.7 -16.5C5.3 -16.3 10.6 -10.8 12.4 -4.7Z" fill="none" stroke="#563829" stroke-width="15"></path></g><g transform="translate(772 72)"><path d="M12.7 -4.1C14.8 2.3 13.7 9.8 9.2 13.1C4.8 16.4 -2.9 15.6 -8.4 11.6C-13.8 7.6 -16.9 0.6 -15.1 -5.4C-13.4 -11.4 -6.7 -16.3 -0.7 -16.1C5.3 -15.9 10.6 -10.5 12.7 -4.1Z" fill="none" stroke="#563829" stroke-width="15"></path></g><g transform="translate(193 55)"><path d="M4.8 -1.5C5.4 0.2 4.4 2.5 2.8 3.5C1.2 4.6 -1 4.5 -2.6 3.4C-4.3 2.2 -5.4 0.1 -4.8 -1.6C-4.3 -3.3 -2.2 -4.5 0 -4.5C2.1 -4.5 4.3 -3.3 4.8 -1.5Z" fill="none" stroke="#563829" stroke-width="15"></path></g><g transform="translate(893 345)"><path d="M8.8 -3.1C9.9 0.5 8.2 4.7 5.2 6.8C2.1 9 -2.2 9 -4.9 6.9C-7.7 4.9 -8.9 0.8 -7.8 -2.7C-6.7 -6.3 -3.3 -9.4 0.3 -9.5C3.9 -9.6 7.7 -6.7 8.8 -3.1Z" fill="none" stroke="#563829" stroke-width="15"></path></g><g transform="translate(687 239)"><path d="M25.2 -9.2C28 0.5 22.4 11.8 13.9 17.7C5.3 23.5 -6.2 23.9 -14.4 18.3C-22.7 12.7 -27.7 1 -24.8 -8.8C-21.8 -18.6 -10.9 -26.6 0.1 -26.7C11.2 -26.7 22.4 -18.8 25.2 -9.2Z" fill="none" stroke="#563829" stroke-width="15"></path></g><g transform="translate(746 477)"><path d="M20.5 -7.3C22.8 0.6 18.5 10.1 11.6 14.8C4.7 19.5 -4.7 19.5 -11.3 14.9C-17.9 10.2 -21.7 1 -19.3 -7C-17 -14.9 -8.5 -21.5 0.3 -21.6C9 -21.7 18.1 -15.2 20.5 -7.3Z" fill="none" stroke="#563829" stroke-width="15"></path></g><g transform="translate(584 510)"><path d="M4.2 -1.3C4.7 0.4 4 2.5 2.6 3.5C1.2 4.5 -0.9 4.3 -2.3 3.3C-3.6 2.2 -4.2 0.3 -3.7 -1.2C-3.2 -2.8 -1.6 -4 0.1 -4C1.8 -4 3.6 -2.9 4.2 -1.3Z" fill="none" stroke="#563829" stroke-width="15"></path></g><g transform="translate(406 607)"><path d="M17.4 -6C19.8 1.7 17.1 10.7 11.1 15.1C5 19.4 -4.3 19.1 -10.3 14.6C-16.3 10.2 -18.9 1.6 -16.7 -5.9C-14.4 -13.4 -7.2 -19.8 0.2 -19.9C7.5 -19.9 15 -13.6 17.4 -6Z" fill="none" stroke="#563829" stroke-width="15"></path></g><g transform="translate(257 499)"><path d="M29 -9.8C32.2 0.6 25.9 13.7 15.5 21.2C5.1 28.7 -9.2 30.6 -18.9 24C-28.6 17.5 -33.7 2.4 -29.8 -8.9C-25.8 -20.3 -12.9 -28.1 0 -28C12.9 -28 25.7 -20.3 29 -9.8Z" fill="none" stroke="#563829" stroke-width="15"></path></g><g transform="translate(697 342)"><path d="M22.6 -6.9C25.5 1.9 21.8 13.3 13.9 19C6 24.8 -6 24.8 -14.2 19C-22.3 13.2 -26.7 1.5 -23.7 -7.3C-20.7 -16.1 -10.3 -22.2 -0.3 -22.1C9.8 -22 19.6 -15.8 22.6 -6.9Z" fill="none" stroke="#563829" stroke-width="15"></path></g><g transform="translate(67 672)"><path d="M22.9 -7C26.1 2.4 22.7 14.4 15 19.8C7.4 25.1 -4.5 23.8 -13.1 17.6C-21.8 11.4 -27.3 0.4 -24.6 -8.4C-21.9 -17.2 -10.9 -23.6 -0.5 -23.5C9.9 -23.3 19.7 -16.5 22.9 -7Z" fill="none" stroke="#563829" stroke-width="15"></path></g><g transform="translate(817 573)"><path d="M7.4 -2.1C8.5 1.1 7.7 5.2 5 7.3C2.3 9.4 -2.3 9.4 -5 7.4C-7.8 5.3 -8.7 1.1 -7.5 -2.1C-6.4 -5.4 -3.2 -7.6 0 -7.6C3.1 -7.6 6.3 -5.3 7.4 -2.1Z" fill="none" stroke="#563829" stroke-width="15"></path></g><g transform="translate(189 294)"><path d="M14.3 -4.3C16.1 1 13.6 8.1 8.5 11.8C3.5 15.4 -4 15.7 -8.8 12.2C-13.5 8.8 -15.3 1.6 -13.4 -3.9C-11.5 -9.3 -5.7 -13.1 0.2 -13.1C6.2 -13.2 12.4 -9.6 14.3 -4.3Z" fill="none" stroke="#563829" stroke-width="15"></path></g><g transform="translate(2 229)"><path d="M31 -10.2C34.7 1.4 28.5 16.1 17.6 24C6.7 31.9 -9 32.9 -18 26.1C-27.1 19.2 -29.4 4.4 -25.3 -7.7C-21.2 -19.9 -10.6 -29.4 1.5 -29.9C13.6 -30.4 27.2 -21.8 31 -10.2Z" fill="none" stroke="#563829" stroke-width="15"></path></g><g transform="translate(112 224)"><path d="M17.5 -5.7C20 1.9 17.4 11.2 11.5 15.4C5.6 19.6 -3.7 18.7 -10.2 14C-16.8 9.2 -20.6 0.7 -18.4 -6.5C-16.2 -13.7 -8.1 -19.4 -0.3 -19.3C7.5 -19.3 15.1 -13.3 17.5 -5.7Z" fill="none" stroke="#563829" stroke-width="15"></path></g><g transform="translate(85 114)"><path d="M10.3 -3.3C11.7 1 10.1 6.4 6.5 9C2.9 11.7 -2.8 11.6 -6.5 8.9C-10.3 6.2 -12.3 0.8 -10.9 -3.5C-9.5 -7.7 -4.7 -10.8 -0.1 -10.7C4.5 -10.7 8.9 -7.5 10.3 -3.3Z" fill="none" stroke="#563829" stroke-width="15"></path></g></g></svg>