<svg id="visual" viewBox="0 0 900 675" width="900" height="675" xmlns="http://www.w3.org/2000/svg" xmlns:xlink="http://www.w3.org/1999/xlink" version="1.1"><rect width="900" height="675" fill="#F9F6EE"></rect><g><g transform="translate(896 673)"><path d="M10.2 -3.4C11.5 0.8 9.7 5.9 6.1 8.6C2.5 11.3 -3.1 11.6 -6.3 9.1C-9.6 6.6 -10.6 1.4 -9.1 -2.9C-7.7 -7.2 -3.8 -10.7 0.3 -10.8C4.4 -10.9 8.8 -7.6 10.2 -3.4Z" stroke="#563829" fill="none" stroke-width="20"></path></g><g transform="translate(789 525)"><path d="M5.7 -1.8C6.5 0.8 5.8 3.9 3.8 5.3C1.9 6.7 -1.3 6.5 -3.5 4.9C-5.7 3.3 -6.9 0.3 -6.1 -2.1C-5.4 -4.5 -2.7 -6.5 -0.1 -6.4C2.4 -6.4 4.8 -4.4 5.7 -1.8Z" stroke="#563829" fill="none" stroke-width="20"></path></g><g transform="translate(360 330)"><path d="M8.5 -2.5C9.6 0.6 8.1 4.9 5.1 7C2.2 9.1 -2.2 9.1 -5.2 6.9C-8.3 4.8 -10 0.5 -8.9 -2.7C-7.8 -5.9 -3.9 -7.9 -0.1 -7.9C3.7 -7.8 7.4 -5.7 8.5 -2.5Z" stroke="#563829" fill="none" stroke-width="20"></path></g><g transform="translate(25 668)"><path d="M3.5 -1C4.1 0.5 3.7 2.5 2.4 3.5C1.2 4.4 -1 4.3 -2.3 3.3C-3.6 2.3 -4.1 0.4 -3.6 -1.1C-3 -2.6 -1.5 -3.8 0 -3.8C1.5 -3.8 3 -2.6 3.5 -1Z" stroke="#563829" fill="none" stroke-width="20"></path></g><g transform="translate(352 370)"><path d="M0.7 -0.3C0.8 0 0.6 0.3 0.4 0.5C0.1 0.7 -0.2 0.7 -0.4 0.5C-0.6 0.4 -0.7 0.1 -0.7 -0.2C-0.6 -0.5 -0.3 -0.7 0 -0.7C0.3 -0.7 0.6 -0.5 0.7 -0.3Z" stroke="#563829" fill="none" stroke-width="20"></path></g><g transform="translate(631 540)"><path d="M2.9 -0.9C3.2 0.1 2.6 1.5 1.7 2.2C0.7 2.9 -0.8 3 -1.6 2.3C-2.4 1.7 -2.7 0.4 -2.3 -0.7C-1.9 -1.8 -1 -2.7 0.1 -2.7C1.3 -2.8 2.5 -2 2.9 -0.9Z" stroke="#563829" fill="none" stroke-width="20"></path></g><g transform="translate(495 236)"><path d="M6.2 -2C6.9 0.4 5.8 3.4 3.8 4.8C1.8 6.2 -1.2 6 -3.1 4.5C-5 3.1 -5.8 0.4 -5.1 -1.8C-4.5 -4.1 -2.2 -6 0.2 -6.1C2.7 -6.2 5.4 -4.4 6.2 -2Z" stroke="#563829" fill="none" stroke-width="20"></path></g><g transform="translate(594 88)"><path d="M5.6 -1.6C6.4 0.9 5.9 4.1 4 5.4C2.1 6.7 -1 6.2 -3.2 4.6C-5.4 2.9 -6.6 0.2 -5.9 -2C-5.2 -4.2 -2.6 -5.9 -0.1 -5.8C2.3 -5.8 4.7 -4 5.6 -1.6Z" stroke="#563829" fill="none" stroke-width="20"></path></g><g transform="translate(794 568)"><path d="M2 -0.7C2.3 0.2 2 1.2 1.3 1.7C0.6 2.2 -0.4 2.1 -1.1 1.6C-1.8 1.1 -2.2 0.1 -2 -0.7C-1.7 -1.5 -0.9 -2.2 0 -2.2C0.9 -2.2 1.7 -1.5 2 -0.7Z" stroke="#563829" fill="none" stroke-width="20"></path></g><g transform="translate(483 563)"><path d="M5.2 -1.7C5.9 0.5 5 3.1 3.2 4.4C1.4 5.7 -1.3 5.7 -3.3 4.3C-5.2 3 -6.4 0.3 -5.7 -1.9C-5 -4 -2.5 -5.6 -0.1 -5.6C2.2 -5.5 4.5 -3.9 5.2 -1.7Z" stroke="#563829" fill="none" stroke-width="20"></path></g><g transform="translate(609 262)"><path d="M7.1 -2.2C8 0.6 6.9 4.2 4.4 5.9C2 7.6 -1.6 7.5 -4.3 5.6C-7 3.7 -8.6 0.2 -7.7 -2.5C-6.8 -5.2 -3.4 -7.1 -0.2 -7.1C3.1 -7 6.1 -5 7.1 -2.2Z" stroke="#563829" fill="none" stroke-width="20"></path></g><g transform="translate(699 165)"><path d="M7.3 -2.1C8.5 1.1 7.6 5.2 5.1 7.1C2.5 9 -1.8 8.7 -4.6 6.6C-7.3 4.5 -8.6 0.6 -7.6 -2.4C-6.6 -5.4 -3.3 -7.7 -0.1 -7.6C3.1 -7.6 6.2 -5.3 7.3 -2.1Z" stroke="#563829" fill="none" stroke-width="20"></path></g><g transform="translate(25 534)"><path d="M4.2 -1.2C4.9 0.6 4.3 2.9 2.8 4C1.3 5.1 -1.2 5.1 -2.8 3.9C-4.5 2.7 -5.3 0.3 -4.7 -1.4C-4.1 -3.2 -2 -4.4 -0.1 -4.3C1.8 -4.3 3.6 -3 4.2 -1.2Z" stroke="#563829" fill="none" stroke-width="20"></path></g><g transform="translate(509 131)"><path d="M5.2 -1.7C6 0.6 5.3 3.5 3.4 4.9C1.5 6.3 -1.6 6.4 -3.5 4.9C-5.4 3.5 -6.1 0.6 -5.4 -1.7C-4.6 -4 -2.3 -5.8 0 -5.8C2.2 -5.8 4.5 -4 5.2 -1.7Z" stroke="#563829" fill="none" stroke-width="20"></path></g><g transform="translate(811 318)"><path d="M1.8 -0.7C2.1 0.2 1.8 1.1 1.1 1.6C0.4 2.1 -0.6 2.1 -1.2 1.7C-1.8 1.2 -2 0.3 -1.7 -0.6C-1.4 -1.5 -0.7 -2.2 0 -2.2C0.8 -2.3 1.6 -1.5 1.8 -0.7Z" stroke="#563829" fill="none" stroke-width="20"></path></g><g transform="translate(197 72)"><path d="M4.1 -1.4C4.6 0.2 3.8 2.2 2.4 3.2C0.9 4.3 -1.2 4.4 -2.4 3.4C-3.7 2.5 -4.1 0.5 -3.5 -1.2C-3 -2.9 -1.5 -4.3 0.2 -4.4C1.8 -4.4 3.6 -3.1 4.1 -1.4Z" stroke="#563829" fill="none" stroke-width="20"></path></g><g transform="translate(368 460)"><path d="M4.5 -1.6C5 0.1 4 2.2 2.4 3.4C0.8 4.6 -1.5 4.9 -2.9 3.9C-4.4 2.9 -4.9 0.6 -4.3 -1.3C-3.6 -3.2 -1.8 -4.6 0.1 -4.7C2 -4.7 4 -3.3 4.5 -1.6Z" stroke="#563829" fill="none" stroke-width="20"></path></g><g transform="translate(588 509)"><path d="M2.1 -0.7C2.4 0.2 2 1.2 1.3 1.7C0.6 2.2 -0.4 2.1 -1.1 1.6C-1.7 1.1 -2 0.2 -1.7 -0.6C-1.5 -1.4 -0.7 -2.1 0.1 -2.2C0.9 -2.2 1.8 -1.5 2.1 -0.7Z" stroke="#563829" fill="none" stroke-width="20"></path></g><g transform="translate(631 430)"><path d="M2.1 -0.7C2.4 0.1 2 1.1 1.2 1.6C0.5 2.1 -0.5 2.2 -1.2 1.7C-1.8 1.2 -2 0.2 -1.8 -0.5C-1.5 -1.3 -0.8 -1.9 0.1 -1.9C0.9 -2 1.9 -1.4 2.1 -0.7Z" stroke="#563829" fill="none" stroke-width="20"></path></g><g transform="translate(91 581)"><path d="M1.9 -0.6C2.2 0.1 1.8 1.1 1.1 1.5C0.5 2 -0.5 2 -1.1 1.5C-1.7 1.1 -2 0.2 -1.8 -0.6C-1.6 -1.4 -0.8 -2 0 -2C0.8 -2 1.7 -1.4 1.9 -0.6Z" stroke="#563829" fill="none" stroke-width="20"></path></g><g transform="translate(163 242)"><path d="M1.2 -0.4C1.4 0.2 1.2 0.8 0.8 1.2C0.3 1.5 -0.4 1.5 -0.9 1.2C-1.4 0.8 -1.6 0.1 -1.4 -0.5C-1.3 -1 -0.6 -1.4 -0.1 -1.4C0.5 -1.4 1 -0.9 1.2 -0.4Z" stroke="#563829" fill="none" stroke-width="20"></path></g><g transform="translate(130 225)"><path d="M1.8 -0.6C2 0.2 1.7 1.1 1.1 1.6C0.4 2.1 -0.6 2.2 -1.3 1.7C-2 1.2 -2.3 0.2 -2 -0.6C-1.8 -1.5 -0.9 -2 -0.1 -2C0.8 -2 1.6 -1.4 1.8 -0.6Z" stroke="#563829" fill="none" stroke-width="20"></path></g><g transform="translate(746 559)"><path d="M1.4 -0.4C1.6 0 1.3 0.7 0.8 1C0.3 1.3 -0.3 1.3 -0.7 1C-1.1 0.7 -1.3 0.1 -1.2 -0.4C-1 -0.8 -0.5 -1.2 0.1 -1.2C0.6 -1.2 1.3 -0.9 1.4 -0.4Z" stroke="#563829" fill="none" stroke-width="20"></path></g><g transform="translate(372 211)"><path d="M3.6 -1.2C4.1 0.2 3.4 2 2.2 2.9C0.9 3.8 -0.9 3.7 -2.1 2.9C-3.2 2 -3.8 0.3 -3.3 -1.1C-2.9 -2.5 -1.4 -3.6 0.1 -3.6C1.6 -3.7 3.2 -2.6 3.6 -1.2Z" stroke="#563829" fill="none" stroke-width="20"></path></g><g transform="translate(216 399)"><path d="M1.7 -0.6C2 0.1 1.7 1 1.1 1.4C0.5 1.9 -0.4 1.8 -1.1 1.4C-1.8 0.9 -2.2 0 -2 -0.7C-1.8 -1.4 -0.9 -1.9 -0.1 -1.9C0.8 -1.9 1.5 -1.3 1.7 -0.6Z" stroke="#563829" fill="none" stroke-width="20"></path></g><g transform="translate(887 295)"><path d="M1.9 -0.5C2.2 0.3 2 1.3 1.3 1.8C0.7 2.3 -0.4 2.2 -1.1 1.6C-1.8 1.1 -2.2 0.1 -1.9 -0.6C-1.7 -1.3 -0.8 -1.9 0 -1.9C0.8 -1.9 1.6 -1.3 1.9 -0.5Z" stroke="#563829" fill="none" stroke-width="20"></path></g><g transform="translate(476 335)"><path d="M0.7 -0.2C0.8 0 0.7 0.4 0.4 0.5C0.2 0.7 -0.2 0.7 -0.4 0.6C-0.7 0.4 -0.8 0.1 -0.7 -0.2C-0.6 -0.5 -0.3 -0.7 0 -0.7C0.3 -0.7 0.6 -0.5 0.7 -0.2Z" stroke="#563829" fill="none" stroke-width="20"></path></g><g transform="translate(653 311)"><path d="M9 -3.3C10 0.2 8 4.3 4.9 6.4C1.9 8.6 -2.3 8.8 -5.1 6.8C-7.8 4.9 -9.1 0.8 -8 -2.9C-6.9 -6.5 -3.5 -9.7 0.3 -9.8C4 -9.9 7.9 -6.9 9 -3.3Z" stroke="#563829" fill="none" stroke-width="20"></path></g><g transform="translate(854 284)"><path d="M5.5 -1.7C6.2 0.6 5.4 3.4 3.6 4.7C1.8 5.9 -1 5.5 -2.7 4.2C-4.5 2.8 -5.2 0.5 -4.6 -1.7C-3.9 -3.8 -2 -5.6 0.2 -5.7C2.4 -5.8 4.7 -4 5.5 -1.7Z" stroke="#563829" fill="none" stroke-width="20"></path></g><g transform="translate(140 553)"><path d="M7.2 -2.4C8.2 0.8 7.2 4.7 4.7 6.6C2.1 8.5 -2 8.4 -4.7 6.4C-7.4 4.4 -8.8 0.6 -7.8 -2.6C-6.8 -5.9 -3.4 -8.4 -0.2 -8.4C3.1 -8.3 6.2 -5.7 7.2 -2.4Z" stroke="#563829" fill="none" stroke-width="20"></path></g><g transform="translate(153 646)"><path d="M5.5 -1.6C6.4 0.8 5.8 4 3.8 5.4C1.9 6.9 -1.4 6.7 -3.5 5.1C-5.5 3.6 -6.3 0.6 -5.5 -1.7C-4.7 -4 -2.4 -5.7 0 -5.7C2.3 -5.7 4.7 -4 5.5 -1.6Z" stroke="#563829" fill="none" stroke-width="20"></path></g><g transform="translate(246 258)"><path d="M2.1 -0.7C2.4 0.2 2 1.2 1.3 1.7C0.6 2.2 -0.4 2.1 -1.1 1.5C-1.9 1 -2.3 0.1 -2.1 -0.7C-1.8 -1.5 -0.9 -2.2 0 -2.2C0.9 -2.2 1.8 -1.5 2.1 -0.7Z" stroke="#563829" fill="none" stroke-width="20"></path></g><g transform="translate(847 613)"><path d="M8.2 -2.7C9.3 0.6 7.9 4.8 5.2 6.7C2.4 8.5 -1.6 8.2 -4.4 6.1C-7.3 4.1 -8.8 0.4 -7.9 -2.8C-6.9 -5.9 -3.5 -8.5 0.1 -8.5C3.6 -8.5 7.2 -6 8.2 -2.7Z" stroke="#563829" fill="none" stroke-width="20"></path></g></g></svg>