<svg id="visual" viewBox="0 0 900 675" width="900" height="675" xmlns="http://www.w3.org/2000/svg" xmlns:xlink="http://www.w3.org/1999/xlink" version="1.1"><path d="M0 15L900 42L900 0L0 0Z" fill="#f9f6ee"></path><path d="M0 55L900 109L900 40L0 13Z" fill="#f6f1e7"></path><path d="M0 109L900 156L900 107L0 53Z" fill="#f3ecdf"></path><path d="M0 136L900 204L900 154L0 107Z" fill="#f0e7d8"></path><path d="M0 291L900 325L900 202L0 134Z" fill="#ede2d1"></path><path d="M0 305L900 345L900 323L0 289Z" fill="#eadeca"></path><path d="M0 345L900 359L900 343L0 303Z" fill="#e8d8c2"></path><path d="M0 420L900 494L900 357L0 343Z" fill="#e5d3bb"></path><path d="M0 480L900 561L900 492L0 418Z" fill="#e3ceb4"></path><path d="M0 588L900 622L900 559L0 478Z" fill="#e0c9ad"></path><path d="M0 642L900 663L900 620L0 586Z" fill="#dec4a7"></path><path d="M0 676L900 676L900 661L0 640Z" fill="#dcbfa0"></path></svg>